<?xml version="1.0" encoding="UTF-8"?>
<svg version="1.1" viewBox="0 0 157 39" xmlns="http://www.w3.org/2000/svg" xmlns:xlink="http://www.w3.org/1999/xlink">
<defs>
<polygon id="am" points="0 38.939 156.98 38.939 156.98 0 0 0"/>
<polygon id="ab" points="0 38.939 156.98 38.939 156.98 0 0 0"/>
<polygon id="q" points="0 38.939 156.98 38.939 156.98 0 0 0"/>
<polygon id="i" points="0 38.939 156.98 38.939 156.98 0 0 0"/>
<polygon id="h" points="0 38.939 156.98 38.939 156.98 0 0 0"/>
<polygon id="al" points="0 38.939 156.98 38.939 156.98 0 0 0"/>
<polygon id="ak" points="0 38.939 156.98 38.939 156.98 0 0 0"/>
<polygon id="aj" points="0 38.939 156.98 38.939 156.98 0 0 0"/>
<polygon id="ai" points="0 38.939 156.98 38.939 156.98 0 0 0"/>
<polygon id="ah" points="0 38.939 156.98 38.939 156.98 0 0 0"/>
<polygon id="ag" points="0 38.939 156.98 38.939 156.98 0 0 0"/>
<polygon id="af" points="0 38.939 156.98 38.939 156.98 0 0 0"/>
<polygon id="ae" points="0 38.939 156.98 38.939 156.98 0 0 0"/>
<polygon id="ad" points="0 38.939 156.98 38.939 156.98 0 0 0"/>
<polygon id="ac" points="0 38.939 156.98 38.939 156.98 0 0 0"/>
<polygon id="aa" points="0 38.939 156.98 38.939 156.98 0 0 0"/>
<polygon id="z" points="0 38.939 156.98 38.939 156.98 0 0 0"/>
<polygon id="y" points="0 38.939 156.98 38.939 156.98 0 0 0"/>
<polygon id="x" points="0 38.939 156.98 38.939 156.98 0 0 0"/>
<polygon id="w" points="0 38.939 156.98 38.939 156.98 0 0 0"/>
<polygon id="v" points="0 38.939 156.98 38.939 156.98 0 0 0"/>
<polygon id="u" points="0 38.939 156.98 38.939 156.98 0 0 0"/>
<polygon id="t" points="0 38.939 156.98 38.939 156.98 0 0 0"/>
<polygon id="s" points="0 38.939 156.98 38.939 156.98 0 0 0"/>
<polygon id="r" points="0 38.939 156.98 38.939 156.98 0 0 0"/>
<polygon id="p" points="0 38.939 156.98 38.939 156.98 0 0 0"/>
<polygon id="o" points="0 38.939 156.98 38.939 156.98 0 0 0"/>
<polygon id="n" points="0 38.939 156.98 38.939 156.98 0 0 0"/>
<polygon id="m" points="0 38.939 156.98 38.939 156.98 0 0 0"/>
<polygon id="l" points="0 38.939 156.98 38.939 156.98 0 0 0"/>
<polygon id="k" points="0 38.939 156.98 38.939 156.98 0 0 0"/>
<polygon id="j" points="0 38.939 156.98 38.939 156.98 0 0 0"/>
</defs>
<g fill="none" fill-rule="evenodd">
<g fill-rule="nonzero">
<path d="m54.816 31.381h-0.7354v-0.19272c0-0.50981-0.35869-0.50981-1.1028-0.50981-0.88781 0-1.3184-0.0094864-1.3184 0.61574 0 0.90491 0.23329 0.83727 0.96852 0.87557 1.2105 0.077473 2.3134-0.12491 2.3134 1.5208 0 1.4242-0.91433 1.4816-1.9636 1.4816-1.0224 0-2.0896-0.057446-2.0896-1.1835v-0.47134h0.7354v0.39422c0 0.48118 0.27815 0.58711 1.3542 0.58711 0.4841 0 1.2283 0.11559 1.2283-0.7793 0-0.9432-0.3677-0.77016-1.2283-0.82761-1.0224-0.076946-2.0536 0.038297-2.0536-1.3954 0-1.4627 0.78009-1.4917 2.0536-1.4917 0.82495 0 1.8382 0.038824 1.8382 1.1835v0.19272z" fill="#00467F"/>
<polygon points="56.78 32.074 57.067 32.074 58.762 30.063 59.631 30.063 57.614 32.382 59.999 35.115 59.067 35.115 57.067 32.69 56.78 32.69 56.78 35.115 56.072 35.115 56.072 27.898 56.78 27.898" fill="#00467F"/>
<polygon points="63.398 28.485 61.954 29.447 61.712 29.053 63.048 27.965" fill="#00467F"/>
<path d="m62.555 30.005c1.7486 0 2.0893 0.45219 2.0893 2.5882 0 2.1271-0.34069 2.5791-2.0893 2.5791-1.7488 0-2.0896-0.45201-2.0896-2.5791 0-2.136 0.34085-2.5882 2.0896-2.5882zm0 4.5516c1.2643 0 1.3539-0.21186 1.3539-1.9634 0-1.7608-0.089551-1.9725-1.3539-1.9725-1.2645 0-1.3541 0.21169-1.3541 1.9725 0 1.7515 0.08955 1.9634 1.3541 1.9634z" fill="#00467F"/>
<mask id="bh" fill="white">
<use xlink:href="#am"/>
</mask>
<polygon points="65.891 35.115 66.599 35.115 66.599 27.898 65.891 27.898" fill="#00467F" mask="url(#bh)"/>
<mask id="c" fill="white">
<use xlink:href="#ab"/>
</mask>
<polygon points="67.98 35.115 68.688 35.115 68.688 30.063 67.98 30.063" fill="#00467F" mask="url(#c)"/>
<polygon points="67.98 28.735 68.688 28.735 68.688 27.898 67.98 27.898" fill="#00467F" mask="url(#c)"/>
<mask id="ar" fill="white">
<use xlink:href="#q"/>
</mask>
<path d="m76.535 35.115v-0.5193l-0.018008-0.019676c-0.26898 0.57745-0.95952 0.59677-1.5515 0.59677-1.0579 0-1.7935-0.21204-1.7935-1.5301 0-1.395 0.67269-1.5876 1.8383-1.5876 0.46642 0 1.3811 0.047959 1.4796 0.50999h0.045021v-0.93372c0-0.92353-0.45741-1.0103-1.2553-1.0103-0.55613 0-1.2377 0-1.2288 0.69286v0.17339h-0.73523v-0.10593c0-1.2989 0.83395-1.3857 1.8833-1.3762 1.1836-0.0094865 2.0534 0.12543 2.0444 1.6647v3.4452h-0.70838zm-1.4438-2.4442c-0.84279 0-1.1836 0.057797-1.1836 0.87574 0 0.96235 0.36753 1.0105 1.1836 1.0105 0.70838 0 1.4258-0.019324 1.4258-0.9432 0-0.95269-0.52895-0.94303-1.4258-0.94303z" fill="#00467F" mask="url(#ar)"/>
<mask id="an" fill="white">
<use xlink:href="#i"/>
</mask>
<path d="m81.117 30.679h-1.8202v3.2047c0.0090042 0.54811 0.14341 0.67336 0.66353 0.67336 0.66353 0 0.66353-0.37542 0.66353-0.85677v-0.37507h0.67253v0.37507c0 1.0008-0.38538 1.4725-1.3539 1.4725-1.1029 0-1.3544-0.33695-1.3544-1.5201v-2.9737h-0.62718v-0.61574h0.62718v-1.2224h0.70871v1.2224h1.8202v0.61574z" fill="#00467F" mask="url(#an)"/>
<mask id="bl" fill="white">
<use xlink:href="#h"/>
</mask>
<polygon points="83.987 35.115 82.991 35.115 81.431 30.063 82.148 30.063 83.484 34.538 83.502 34.538 84.794 30.063 85.565 30.063" fill="#00467F" mask="url(#bl)"/>
<mask id="g" fill="white">
<use xlink:href="#al"/>
</mask>
<polygon points="86.309 35.115 87.018 35.115 87.018 30.063 86.309 30.063" fill="#00467F" mask="url(#g)"/>
<polygon points="86.309 28.735 87.018 28.735 87.018 27.898 86.309 27.898" fill="#00467F" mask="url(#g)"/>
<mask id="bk" fill="white">
<use xlink:href="#ak"/>
</mask>
<path d="m89.125 30.679h0.018172c0.22396-0.60608 0.9145-0.67372 1.4525-0.67372 1.2107 0 1.7938 0.34661 1.7758 1.7515v3.3586h-0.70855v-3.4164c0-0.9237-0.33168-1.0779-1.1296-1.0779-1.1571 0-1.4083 0.38526-1.4083 1.5493v2.945h-0.70855v-5.0521h0.70855v0.61574z" fill="#00467F" mask="url(#bk)"/>
<mask id="bj" fill="white">
<use xlink:href="#aj"/>
</mask>
<path d="m94.496 30.679h0.017845c0.22429-0.60608 0.9145-0.67372 1.4525-0.67372 1.2108 0 1.7933 0.34661 1.7756 1.7515v3.3586h-0.70822v-3.4164c0-0.9237-0.33184-1.0779-1.1301-1.0779-1.1566 0-1.4076 0.38526-1.4076 1.5493v2.945h-0.70855v-5.0521h0.70855v0.61574z" fill="#00467F" mask="url(#bj)"/>
<mask id="bi" fill="white">
<use xlink:href="#ai"/>
</mask>
<path d="m102.31 34.442h-0.018336c-0.25097 0.61609-0.8513 0.73134-1.4705 0.73134-1.2465 0-1.6861-0.5388-1.6861-1.8671v-3.2426h0.70871v3.2426c0 0.81812 0.053698 1.2513 0.96852 1.2513 0.99537 0 1.5065-0.17322 1.5065-1.3762v-3.1177h0.70822v5.0521h-0.71706v-0.67372z" fill="#00467F" mask="url(#bi)"/>
<mask id="bg" fill="white">
<use xlink:href="#ah"/>
</mask>
<polygon points="104.43 35.115 105.14 35.115 105.14 27.898 104.43 27.898" fill="#00467F" mask="url(#bg)"/>
<mask id="f" fill="white">
<use xlink:href="#ag"/>
</mask>
<polygon points="106.52 35.115 107.23 35.115 107.23 30.063 106.52 30.063" fill="#00467F" mask="url(#f)"/>
<polygon points="107.72 28.485 106.28 29.447 106.04 29.053 107.37 27.965" fill="#00467F" mask="url(#f)"/>
<mask id="bf" fill="white">
<use xlink:href="#af"/>
</mask>
<path d="m110.76 30.063v0.61574h-1.2463v4.4362h-0.70855v-4.4362h-0.71706v-0.61574h0.71706v-0.60608c0-1.2318 0.35869-1.6169 1.5153-1.6169 0.14341 0 0.29616 0.0096621 0.43957 0.019324v0.61574c-0.14341-0.0096621-0.29616-0.019324-0.43957-0.019324-0.70806 0-0.80677 0.25016-0.80677 0.92388v0.68338h1.2463z" fill="#00467F" mask="url(#bf)"/>
<mask id="be" fill="white">
<use xlink:href="#ae"/>
</mask>
<path d="m115.25 31.381h-0.7354v-0.19272c0-0.50981-0.35853-0.50981-1.1029-0.50981-0.88765 0-1.3182-0.0094864-1.3182 0.61574 0 0.90491 0.23313 0.83727 0.96852 0.87557 1.2107 0.077473 2.3137-0.12491 2.3137 1.5208 0 1.4242-0.91482 1.4816-1.9641 1.4816-1.0227 0-2.0893-0.057446-2.0893-1.1835v-0.47134h0.73523v0.39422c0 0.48118 0.27798 0.58711 1.3541 0.58711 0.48426 0 1.2283 0.11559 1.2283-0.7793 0-0.9432-0.36737-0.77016-1.2283-0.82761-1.0227-0.076946-2.0536 0.038297-2.0536-1.3954 0-1.4627 0.78009-1.4917 2.0536-1.4917 0.82478 0 1.8383 0.038824 1.8383 1.1835v0.19272z" fill="#00467F" mask="url(#be)"/>
<mask id="e" fill="white">
<use xlink:href="#ad"/>
</mask>
<polygon points="116.5 35.115 117.21 35.115 117.21 30.063 116.5 30.063" fill="#00467F" mask="url(#e)"/>
<polygon points="116.5 28.735 117.21 28.735 117.21 27.898 116.5 27.898" fill="#00467F" mask="url(#e)"/>
<mask id="bd" fill="white">
<use xlink:href="#ac"/>
</mask>
<path d="m119.32 30.679h0.017681c0.22412-0.60608 0.91482-0.67372 1.4528-0.67372 1.2108 0 1.7935 0.34661 1.7756 1.7515v3.3586h-0.70855v-3.4164c0-0.9237-0.33168-1.0779-1.1296-1.0779-1.1568 0-1.4079 0.38526-1.4079 1.5493v2.945h-0.70838v-5.0521h0.70838v0.61574z" fill="#00467F" mask="url(#bd)"/>
<mask id="bc" fill="white">
<use xlink:href="#aa"/>
</mask>
<path d="m127.7 31.381h-0.7349v-0.19272c0-0.50981-0.35902-0.50981-1.1033-0.50981-0.88748 0-1.3179-0.0094864-1.3179 0.61574 0 0.90491 0.2328 0.83727 0.96803 0.87557 1.2107 0.077473 2.3139-0.12491 2.3139 1.5208 0 1.4242-0.91482 1.4816-1.9641 1.4816-1.0222 0-2.0895-0.057446-2.0895-1.1835v-0.47134h0.7354v0.39422c0 0.48118 0.27798 0.58711 1.3541 0.58711 0.48426 0 1.2285 0.11559 1.2285-0.7793 0-0.9432-0.3677-0.77016-1.2285-0.82761-1.0222-0.076946-2.0536 0.038297-2.0536-1.3954 0-1.4627 0.78009-1.4917 2.0536-1.4917 0.82478 0 1.8382 0.038824 1.8382 1.1835v0.19272z" fill="#00467F" mask="url(#bc)"/>
<mask id="bb" fill="white">
<use xlink:href="#z"/>
</mask>
<path d="m126.47 12.052c0.75635 0.60696 1.3564 1.5957 1.3564 3.2231v7.4146h-2.6313v-6.9186s0.078254-1.6738-0.86964-2.0988c-0.87782-0.36382-1.8604-0.37964-3.4658-0.37964h-0.082838v9.3971h-2.6309v-11.581h4.5281c1.2864 0 2.6089 0.0045676 3.796 0.94338" fill="#00467F" mask="url(#bb)"/>
<mask id="ba" fill="white">
<use xlink:href="#y"/>
</mask>
<path d="m114.11 12.052c0.75635 0.60696 1.3557 1.5957 1.3557 3.2231v7.4146h-2.631l-3.28e-4 -6.9186s0.078582-1.6738-0.86931-2.0988c-0.87766-0.36382-1.8604-0.37964-3.4656-0.37964h-0.08333v9.3971h-2.6305v-11.581h4.528c1.2866 0 2.6088 0.0045676 3.7965 0.94338" fill="#00467F" mask="url(#ba)"/>
<mask id="d" fill="white">
<use xlink:href="#x"/>
</mask>
<path d="m100.47 20.12v-9.0079h2.6304v11.809c-1.7069 0.0031562-2.6184-1.2568-2.6304-2.8013z" fill="#00467F" mask="url(#d)"/>
<polygon points="100.47 8.4043 103.1 8.4043 103.1 5.9865 100.47 5.9865" fill="#00467F" mask="url(#d)"/>
<mask id="az" fill="white">
<use xlink:href="#w"/>
</mask>
<path d="m95.09 20.12v-14.133h2.6304v16.935c-1.7065 0.0031562-2.6184-1.2568-2.6304-2.8013" fill="#00467F" mask="url(#az)"/>
<mask id="ay" fill="white">
<use xlink:href="#v"/>
</mask>
<path d="m66.479 14.226c0-1.4109-0.6889-1.4109-2.0881-1.4109-1.3983 0-2.3579 0-2.3579 1.5452 0 1.1647 0.2919 1.2097 2.5878 1.3218 2.5886 0.13351 4.885-0.067635 4.885 3.74 0 3.1817-2.3386 3.4958-5.1149 3.4958-2.9841 0-4.9885 0-4.9885-3.8315h2.6305c0.041419 1.7023 0.41747 1.9038 2.3579 1.9038 1.5662 0 2.4843 0.044622 2.4843-1.5681 0-1.0303-0.062865-1.5452-2.7135-1.5902-4.0288-0.066932-4.7593-0.6493-4.7593-3.6507 0-3.2254 2.1705-3.293 4.9885-3.293 2.15 0 4.7177 0.045324 4.7177 3.3378h-2.6295z" fill="#00467F" mask="url(#ay)"/>
<mask id="b" fill="white">
<use xlink:href="#u"/>
</mask>
<path d="m54.24 20.12v-9.0079h2.6304v11.809c-1.7065 0.0031562-2.6182-1.2568-2.6304-2.8013z" fill="#00467F" mask="url(#b)"/>
<polygon points="54.24 8.4043 56.87 8.4043 56.87 5.9865 54.24 5.9865" fill="#00467F" mask="url(#b)"/>
<mask id="ax" fill="white">
<use xlink:href="#t"/>
</mask>
<path d="m18.043 15.391c0-1.904-0.14587-2.5758-2.3376-2.5758-1.1481 0-2.067 0.11173-2.067 1.6352h-2.6295c0-3.4271 2.1918-3.5624 4.6966-3.5624 0.83493 0 3.3399-0.066581 3.7361 1.5238h0.062702c0.48017-1.456 2.505-1.5238 3.5902-1.5238 4.509 0 5.1139 1.4116 5.1139 6.5411h-7.5347c0 2.531 0.061883 3.3373 2.4208 3.3373 1.461 0 2.4843 0.022486 2.4843-1.7244h2.6295c0 3.6964-1.983 3.8759-5.1139 3.8759-1.44 0-3.4026-0.13509-3.9448-1.8602h-0.062865c-0.56333 1.7928-2.5888 1.8602-4.4047 1.8602-2.4835 0-4.0905-0.56005-4.0905-3.7415 0-2.8224 1.3771-3.6061 4.0905-3.6061 1.3365 0 2.6515 0.021608 3.278 1.3882h0.083002v-1.5676zm-2.4216 5.5993c1.3991 0 2.4216-0.13439 2.4216-1.8139 0-1.6352-1.1268-1.6807-2.4216-1.6807-1.3356 0-2.4005 0-2.4005 1.6807 0 1.6571 0.6262 1.8139 2.4005 1.8139zm9.9573-5.3532c0-2.4187-0.33414-2.5981-2.4843-2.5981-2.2751 0-2.4208 0.51561-2.4208 2.5981h4.9051z" fill="#00467F" mask="url(#ax)"/>
<mask id="aw" fill="white">
<use xlink:href="#s"/>
</mask>
<path d="m50.202 12.052c0.75701 0.60696 1.356 1.5957 1.356 3.2231v7.4146h-2.6312v-6.9186s0.078418-1.6738-0.86915-2.0988c-0.87815-0.36382-1.8608-0.37964-3.4661-0.37964h-0.083166v9.3971h-2.6305v-11.581h4.5278c1.2866 0 2.6092 0.0045676 3.7963 0.94338" fill="#00467F" mask="url(#aw)"/>
<mask id="av" fill="white">
<use xlink:href="#r"/>
</mask>
<polygon points="36.029 16.555 40.634 22.69 37.467 22.69 33.879 17.518 33.232 17.518 33.232 22.69 30.601 22.69 30.601 5.9833 33.232 5.9833 33.232 15.592 33.879 15.592 36.888 11.112 39.849 11.112" fill="#00467F" mask="url(#av)"/>
<mask id="au" fill="white">
<use xlink:href="#p"/>
</mask>
<path d="m12.204 5.9862h-12.204v2.1844h4.7868v11.946c0.011951 1.5451 0.92383 2.805 2.6304 2.8017v-14.747h4.7868v-2.1844z" fill="#00467F" mask="url(#au)"/>
<mask id="at" fill="white">
<use xlink:href="#o"/>
</mask>
<polygon points="74.466 15.592 75.113 15.592 78.121 11.112 81.082 11.112 77.262 16.555 81.868 22.69 78.701 22.69 75.113 17.518 74.466 17.518 74.466 22.69 71.835 22.69 71.835 5.9834 74.466 5.9834" fill="#00467F" mask="url(#at)"/>
<mask id="a" fill="white">
<use xlink:href="#n"/>
</mask>
<polygon points="89.609 7.6617 85.56 9.5882 84.995 8.4238 88.669 5.8254" fill="#00467F" mask="url(#a)"/>
<path d="m92.448 16.914c0 4.5479-0.58478 6.0037-5.1564 6.0037-4.5713 0-5.1561-1.4558-5.1561-6.0037 0-4.5697 0.58478-6.026 5.1561-6.026 4.5717 0 5.1564 1.4564 5.1564 6.026zm-7.682 0.021784c0 3.1363 0.18778 3.8308 2.5256 3.8308 2.3385 0 2.5259-0.69445 2.5259-3.8308 0-3.1801-0.18745-3.897-2.5259-3.897-2.3378 0-2.5256 0.71693-2.5256 3.897z" fill="#00467F" mask="url(#a)"/>
<mask id="as" fill="white">
<use xlink:href="#m"/>
</mask>
<path d="m135.04 7.0655c-0.19269 0.34555-0.23591 0.65158-0.23771 1.2568-0.010478 3.783 0.231 8.0574 2.8347 11.651 1.7408 2.4029 6.0439 6.9325 7.529 9.7793 1.8923 3.6291 2.7373 5.9197 3.0958 7.9811 0.13817 0.793 0.29468 1.2053 0.72295 1.2053 0.3546 0 0.68743-0.31428 0.80137-1.2919 0.25588-2.4494 0.44628-5.5935-0.35346-8.3407-1.108-3.8134-3.5056-7.5203-7.5439-11.665-3.3096-3.3969-5.0384-6.3774-5.5931-9.6683-0.067941-0.40054-0.085786-0.61469-0.30925-0.90789-0.35231-0.46185-0.8184-0.22978-0.94642-3.5135e-4" fill="#F47A20" mask="url(#as)"/>
<mask id="aq" fill="white">
<use xlink:href="#l"/>
</mask>
<path d="m156.98 7.1591c0.009495 3.3935-0.20775 7.2282-2.5431 10.452-1.562 2.1557-5.4221 6.2193-6.7539 8.7731-1.6977 3.2563-2.4555 5.31-2.7774 7.1597-0.12377 0.71149-0.2644 1.0811-0.64846 1.0811-0.31809 0-0.61687-0.28231-0.71886-1.1591-0.22985-2.1974-0.40028-5.0171 0.31695-7.4819 0.99422-3.4211 3.1452-6.7463 6.7675-10.465 2.9686-3.0469 4.5203-5.7207 5.0176-8.6728 0.060573-0.35926 0.076617-0.55127 0.27716-0.81443 0.31646-0.41442 0.73441-0.20624 0.84918-3.5135e-4 0.17272 0.31007 0.21168 0.58482 0.21332 1.1273z" fill="#579CBE" mask="url(#aq)"/>
<mask id="ap" fill="white">
<use xlink:href="#k"/>
</mask>
<path d="m145.6 21.937c-0.7755 1.3543-1.351 2.6933-1.7444 4.0472-0.12475 0.42882-0.22101 0.86836-0.29648 1.3132 0.65976 0.88628 1.2257 1.7264 1.6062 2.4554 0.18205 0.34854 0.35084 0.68127 0.51389 1.0063 0.44808-1.2136 1.0885-2.6183 2.0042-4.3747 0.0997-0.19131 0.21512-0.39193 0.34118-0.59853-0.64765-1.2693-1.4518-2.5455-2.4246-3.8489" fill="#00467F" mask="url(#ap)"/>
<mask id="ao" fill="white">
<use xlink:href="#j"/>
</mask>
<path d="m139.01 0.26587c-0.19285 0.34555-0.23624 0.65176-0.23771 1.2568-0.010969 3.7828 0.231 8.0572 2.8345 11.651 1.7409 2.4034 6.0441 6.933 7.5288 9.7799 1.8923 3.6293 2.7373 5.9197 3.0963 7.9811 0.13784 0.79318 0.29452 1.2046 0.7223 1.2046 0.35493 0 0.68759-0.31358 0.80137-1.2921 0.25605-2.4486 0.44677-5.5926-0.35296-8.3399-1.1085-3.8134-3.5056-7.5201-7.5445-11.665-3.3093-3.3967-5.0382-6.3772-5.5931-9.6681-0.067449-0.40036-0.08513-0.61451-0.30876-0.90772-0.3528-0.46203-0.81872-0.22996-0.94626-5.2703e-4" fill="#00467F" mask="url(#ao)"/>
</g>
</g>
</svg>