<svg width="240" height="137" viewBox="0 0 240 137" fill="none" xmlns="http://www.w3.org/2000/svg">
<path fill-rule="evenodd" clip-rule="evenodd" d="M0 54.015V108.03L29.75 107.765L59.5 107.5V97V86.5L42.5 86.32L25.5 86.14L25.239 43.07L24.979 0H12.489H0V54.015ZM85.244 8.023L79.989 16H86.771H93.552L101.699 8.75C106.18 4.762 109.881 1.163 109.923 0.75C109.965 0.337 105.612 0.0100007 100.25 0.0230007L90.5 0.0450001L85.244 8.023ZM152.081 24.588C139.11 28.076 132 36.708 132 48.968C132 60.83 139.734 66.875 161.5 72.026C168.65 73.718 176.365 75.996 178.644 77.089C185.309 80.285 186.525 86.572 181.365 91.157C176.837 95.181 165.358 95.788 158.719 92.355C155.666 90.776 152.01 85.546 152.004 82.75C152 81.19 150.808 81 141 81C128.649 81 129.104 80.62 131.556 88.878C133.333 94.859 138.344 100.945 144.43 104.512C157.094 111.933 183.25 111.667 195.351 103.993C204.703 98.061 209.432 86.976 207.084 76.487C204.842 66.468 197.157 61.508 176.747 56.906C157.83 52.64 153.754 50.1 155.388 43.592C156.304 39.942 160.789 38 168.302 38C176.019 38 180.957 40.712 182.457 45.771L183.414 49H194.335H205.256L204.594 44.75C203.1 35.161 195.274 27.488 183.901 24.461C176.934 22.607 159.187 22.678 152.081 24.588ZM47 25.477C47 25.739 53.75 43.75 62 65.5C71.101 89.494 77 106.444 77 108.6C77 111.215 76.208 112.946 74.001 115.153C71.095 118.059 70.752 118.142 62.965 117.826L54.929 117.5L55.214 127L55.5 136.5L65.365 136.788C81.327 137.253 90.215 133.38 95.083 123.837C96.164 121.718 102.456 105.475 109.065 87.742C115.675 70.009 122.237 52.575 123.647 49C126.748 41.143 132 26.397 132 25.548C132 25.212 126.738 25.063 120.307 25.218L108.615 25.5L99.523 53.5C94.523 68.9 90.198 81.05 89.913 80.5C89.627 79.95 85.368 67.247 80.447 52.27L71.5 25.041L59.25 25.02C52.513 25.009 47 25.215 47 25.477ZM217 66.5V108H228.5H240V66.5V25H228.5H217V66.5Z" fill="#0182C6"/>
</svg>
