<svg width="572" height="215" viewBox="0 0 572 215" fill="none" xmlns="http://www.w3.org/2000/svg">
<rect x="58" y="49" width="451" height="114" fill="white"/>
<path fill-rule="evenodd" clip-rule="evenodd" d="M10.899 2.784C6.584 5.038 5.038 6.584 2.784 10.899L0 16.228V107.5V198.772L2.784 204.101C5.038 208.416 6.584 209.962 10.899 212.216L16.228 215H286H555.772L561.101 212.216C565.416 209.962 566.962 208.416 569.216 204.101L572 198.772V107.5V16.228L569.216 10.899C566.962 6.584 565.416 5.038 561.101 2.784L555.772 0H286H16.228L10.899 2.784ZM185.23 93.834L185.5 114.669L195.379 103.834L205.258 93H210.129C212.808 93 215 93.282 215 93.628C215 93.973 210.726 98.708 205.503 104.15L196.007 114.044L206.003 127.359C211.501 134.682 216 140.972 216 141.337C216 141.701 213.846 142 211.214 142H206.428L198.519 131.25C194.169 125.338 190.471 120.311 190.301 120.079C190.131 119.848 188.869 120.714 187.496 122.004C185.2 124.16 185 125.057 185 133.174V142H181H177V107.5V73H180.98H184.96L185.23 93.834ZM282 107.5V142H277.5H273V107.5V73H277.5H282V107.5ZM376 107.5V142H372.5C369.702 142 369 141.611 369 140.059C369 137.37 367.493 136.701 365.863 138.666C361.981 143.348 351.152 144.378 343.97 140.75C335.883 136.665 332.509 128.74 333.201 115.459C333.914 101.764 339.444 94.044 349.702 92.424C355.297 91.54 360.026 92.528 364.399 95.496L368 97.94V85.47V73H372H376V107.5ZM301.429 76.571C303.467 78.609 303.431 81.867 301.345 84.171C299.314 86.416 296.659 86.516 294.571 84.429C291.373 81.23 293.638 75 298 75C299.021 75 300.564 75.707 301.429 76.571ZM116 87.5V93H123H130V96.5V100H122.931H115.862L116.181 116.091C116.493 131.851 116.551 132.222 118.988 134.194C120.9 135.74 122.464 136.095 125.738 135.726C129.983 135.248 130 135.259 130 138.516C130 140.575 129.414 142.011 128.418 142.393C125.446 143.534 117.806 143.002 114.478 141.423C108.865 138.759 108 135.445 108 116.599V100H104.5C101.438 100 101 99.689 101 97.513C101 95.625 101.828 94.681 104.441 93.589C107.23 92.424 108.102 91.332 109.042 87.826C110.558 82.175 110.694 82 113.559 82C115.851 82 116 82.335 116 87.5ZM163.755 94.064C167.209 95.269 167.892 97.407 165.75 100.314C164.606 101.866 163.929 101.89 157.79 100.601C151.116 99.2 144.903 99.697 142.8 101.8C142.274 102.326 141.991 104.049 142.172 105.628C142.527 108.732 143.189 109.164 157.024 115.316C165.758 119.199 168.333 122.26 168.333 128.757C168.333 133.423 166.319 136.925 161.616 140.438C159.273 142.188 157.393 142.5 149.178 142.5C136.841 142.5 133 141.086 133 136.545C133 134.779 133.246 133.087 133.547 132.786C133.848 132.485 136.886 133.12 140.297 134.197C153.208 138.273 163.228 133.901 159.015 126.029C158.474 125.017 153.923 122.486 148.903 120.406C135.563 114.876 131.754 110.095 134.054 101.767C135.953 94.888 142.633 91.686 153.505 92.444C157.357 92.713 161.97 93.442 163.755 94.064ZM252.306 94.454C259.752 98.029 263.885 106.162 263.956 117.384C264.011 125.936 262.592 130.826 258.679 135.573C250.045 146.047 231.039 145.213 223.642 134.035C216.415 123.115 218.227 103.399 227.064 96.802C233.72 91.832 244.716 90.81 252.306 94.454ZM414.768 93.548C422.864 96.93 426.943 103.678 426.978 113.75L427 120H410.433C395.123 120 393.905 120.133 394.385 121.75C394.671 122.713 395.188 124.688 395.533 126.14C396.417 129.852 401.1 134.008 405.525 135.006C409.389 135.877 417.416 134.966 422.25 133.107C424.968 132.062 425 132.096 425 136.05C425 139.481 424.609 140.205 422.25 141.146C418.03 142.829 406.001 143.357 401.237 142.069C395.77 140.59 390.184 135.669 387.764 130.2C385.516 125.118 385.153 113.558 387.044 107.247C390.601 95.375 403.678 88.914 414.768 93.548ZM302 117.5V142H298H294V117.5V93H298H302V117.5ZM438.465 96.25C439.217 98.037 442.452 106.974 445.654 116.108L451.474 132.716L458.487 113.108L465.5 93.5L469.75 93.193C472.737 92.976 474.002 93.274 474.008 94.193C474.012 94.912 470.075 105.957 465.258 118.738L456.5 141.975L451.5 141.968L446.5 141.962L437.75 118.669C432.938 105.858 429 94.842 429 94.188C429 93.466 430.588 93 433.048 93C436.668 93 437.241 93.344 438.465 96.25ZM350.017 100.295C344.665 102.147 341.889 107.976 341.889 117.364C341.889 129.024 345.231 134.685 352.708 135.688C358.035 136.402 363.425 133.968 365.682 129.829C368.002 125.575 368.179 110.987 365.965 106.59C363.042 100.784 356.299 98.122 350.017 100.295ZM403.035 100.331C399.389 101.561 395 106.924 395 110.148C395 111.843 395.973 112 406.5 112C417.426 112 418 111.898 418 109.95C418 102.661 410.47 97.821 403.035 100.331ZM233.514 102.168C229.67 105.191 228 109.835 228 117.5C228 128.564 232.223 134.86 240.188 135.67C249.759 136.644 255.337 129.993 255.328 117.618C255.322 109.723 253.7 105.482 249.385 102.088C245.643 99.145 237.304 99.187 233.514 102.168ZM323.805 134.349C326.386 139.594 321.041 145.195 315.895 142.639C311.861 140.636 312.128 132.633 316.28 131.087C319.349 129.944 322.257 131.205 323.805 134.349Z" fill="black"/>
</svg>
